<?xml version="1.0" standalone="no"?><!DOCTYPE svg PUBLIC "-//W3C//DTD SVG 1.1//EN" "http://www.w3.org/Graphics/SVG/1.1/DTD/svg11.dtd"><svg t="1578556373096" class="icon" viewBox="0 0 1024 1024" version="1.1" xmlns="http://www.w3.org/2000/svg" p-id="28492" xmlns:xlink="http://www.w3.org/1999/xlink" width="200" height="200"><defs><style type="text/css"></style></defs><path d="M245.421488 461.22314L8.46281 1023.57686h1007.07438L757.421488 461.22314z" fill="#46A069" opacity=".036" p-id="28493"></path><path d="M314.393388 903.828099h23.695868v17.348761h-23.695868v39.352066h-21.580165v-38.928926H216.224793v-12.694215l75.319009-116.786777h22.849586v111.709091z m-74.472727 0h53.315703v-83.358678l-3.385124 6.347108-49.930579 77.01157z" fill="#46A069" p-id="28494"></path><path d="M750.228099 903.828099h23.695868v17.348761h-23.695868v39.352066h-21.580165v-38.928926H651.636364v-12.694215l75.319008-116.786777h22.849587v111.709091z m-74.472727 0h53.315702v-83.358678l-3.385124 6.347108-49.930578 77.01157z" fill="#46A069" p-id="28495"></path><path d="M550.928926 896.21157c0 10.578512-1.269421 20.310744-3.808265 28.350413-2.538843 8.46281-5.923967 15.233058-10.578512 20.733885s-10.155372 10.155372-16.92562 12.694215-14.386777 4.231405-22.849587 4.231405c-8.46281 0-16.079339-1.269421-22.849587-4.231405-6.770248-2.961983-12.271074-7.193388-17.34876-12.694215-4.654545-5.500826-8.46281-12.694215-11.001653-20.733885-2.538843-8.46281-3.808264-17.771901-3.808264-28.350413v-39.352066c0-10.578512 1.269421-20.310744 3.808264-28.350413 2.538843-8.46281 5.923967-15.233058 10.578513-21.157025 4.654545-5.500826 10.578512-10.155372 16.925619-13.117355 6.770248-2.961983 14.386777-4.654545 22.849587-4.654546 8.46281 0 16.502479 1.692562 23.272727 4.654546 6.770248 2.961983 12.271074 7.193388 16.92562 13.117355 4.654545 5.500826 8.039669 12.694215 10.578513 21.157025 2.538843 8.46281 3.808264 17.771901 3.808264 28.350413v39.352066z m-87.166943-4.231405l65.586777-50.353719c-1.269421-11.001653-4.654545-19.887603-9.732231-25.388429-5.077686-5.923967-12.694215-8.88595-22.849587-8.885951-11.424793 0-19.464463 3.808264-24.965289 11.424794-5.500826 7.616529-8.039669 18.618182-8.03967 33.428099v39.775206z m66.009918-30.042975l-65.586777 49.930579c1.269421 11.001653 4.654545 19.041322 10.155372 24.965289 5.500826 5.500826 13.117355 8.46281 22.426446 8.46281 11.424793 0 19.464463-3.808264 24.965289-11.424794 5.077686-7.616529 8.039669-18.618182 8.03967-33.428099v-38.505785z" fill="#46A069" p-id="28496"></path><path d="M537.38843 916.099174c0 1.269421 0.846281 2.115702 2.115702 2.115702s2.115702-0.846281 2.115703-2.115702-0.846281-2.115702-2.115703-2.115703-2.115702 0.846281-2.115702 2.115703z" fill="#EFEFEF" p-id="28497"></path><path d="M351.206612 613.553719c10.578512 67.702479 21.157025 101.553719 32.158677 101.553719s21.580165-25.81157 31.312397-77.434711L351.206612 613.553719z" fill="#46A069" opacity=".108" p-id="28498"></path><path d="M596.628099 635.980165c8.46281 49.930579 19.041322 74.895868 31.735537 74.895868s23.272727-30.889256 31.735538-93.090909l-63.471075 18.195041z" fill="#46A069" opacity=".108" p-id="28499"></path><path d="M465.454545 643.173554c7.193388 84.628099 21.580165 126.942149 43.160331 126.942148s34.27438-41.890909 37.236364-125.672727l-80.396695-1.269421z" fill="#46A069" opacity=".108" p-id="28500"></path><path d="M308.892562 558.545455a196.760331 84.628099 0 1 0 393.520661 0 196.760331 84.628099 0 1 0-393.520661 0Z" fill="#46A069" opacity=".149" p-id="28501"></path><path d="M505.652893 647.404959c-112.555372 0-200.991736-38.928926-200.991736-88.859504s88.436364-88.859504 200.991736-88.859505 200.991736 38.928926 200.991735 88.859505-88.436364 88.859504-200.991735 88.859504z m0-169.256199c-106.208264 0-192.528926 35.966942-192.528926 80.396695s86.320661 80.396694 192.528926 80.396694 192.528926-35.966942 192.528925-80.396694-86.320661-80.396694-192.528925-80.396695z" fill="#46A069" p-id="28502"></path><path d="M245.421488 480.264463a256 120.595041 0 1 0 512 0 256 120.595041 0 1 0-512 0Z" fill="#F9FBFA" p-id="28503"></path><path d="M501.421488 606.360331c-146.829752 0-261.500826-55.431405-261.500827-126.095868s115.094215-126.095868 261.500827-126.095868c146.829752 0 261.500826 55.431405 261.500826 126.095868S648.25124 606.360331 501.421488 606.360331z m0-241.190083c-137.943802 0-250.499174 51.62314-250.499174 115.094215s112.132231 115.094215 250.499174 115.094215 250.499174-51.62314 250.499173-115.094215-112.555372-115.094215-250.499173-115.094215z" fill="#46A069" p-id="28504"></path><path d="M351.206612 495.07438m-21.157025 0a21.157025 21.157025 0 1 0 42.314049 0 21.157025 21.157025 0 1 0-42.314049 0Z" fill="#FFFFFF" p-id="28505"></path><path d="M351.206612 520.46281c-13.963636 0-25.38843-11.424793-25.38843-25.38843s11.424793-25.38843 25.38843-25.38843 25.38843 11.424793 25.388429 25.38843-11.424793 25.38843-25.388429 25.38843z m0-42.31405c-9.309091 0-16.92562 7.616529-16.92562 16.92562s7.616529 16.92562 16.92562 16.92562 16.92562-7.616529 16.925619-16.92562-7.616529-16.92562-16.925619-16.92562z" fill="#46A069" p-id="28506"></path><path d="M360.938843 384.634711c-0.42314 2.538843-0.42314 5.077686-0.423141 7.616529 0 22.426446 7.616529 49.084298 25.811571 66.009917 22.426446 21.157025 67.702479 35.966942 120.171901 35.966942s101.130579-14.809917 127.365289-42.314049c13.963636-14.809917 18.195041-40.198347 18.195041-59.23967 0-9.732231-2.115702-19.041322-5.923967-28.350413 39.775207 22.426446 63.894215 53.738843 60.932232 85.897521-5.077686 56.277686-89.282645 95.206612-188.297521 86.320661-99.861157-9.309091-176.449587-61.778512-171.371901-118.479339 0.846281-12.271074 5.500826-23.272727 13.540496-33.428099z" fill="#46A069" opacity=".083" p-id="28507"></path><path d="M512 537.38843m-21.157025 0a21.157025 21.157025 0 1 0 42.31405 0 21.157025 21.157025 0 1 0-42.31405 0Z" fill="#FFFFFF" p-id="28508"></path><path d="M512 562.77686c-13.963636 0-25.38843-11.424793-25.38843-25.38843s11.424793-25.38843 25.38843-25.38843 25.38843 11.424793 25.38843 25.38843-11.424793 25.38843-25.38843 25.38843z m0-42.31405c-9.309091 0-16.92562 7.616529-16.92562 16.92562s7.616529 16.92562 16.92562 16.92562 16.92562-7.616529 16.92562-16.92562-7.616529-16.92562-16.92562-16.92562z" fill="#46A069" p-id="28509"></path><path d="M668.561983 495.07438m-21.157024 0a21.157025 21.157025 0 1 0 42.314049 0 21.157025 21.157025 0 1 0-42.314049 0Z" fill="#FFFFFF" p-id="28510"></path><path d="M668.561983 520.46281c-13.963636 0-25.38843-11.424793-25.388429-25.38843s11.424793-25.38843 25.388429-25.38843 25.38843 11.424793 25.38843 25.38843-11.424793 25.38843-25.38843 25.38843z m0-42.31405c-9.309091 0-16.92562 7.616529-16.925619 16.92562s7.616529 16.92562 16.925619 16.92562 16.92562-7.616529 16.92562-16.92562-7.616529-16.92562-16.92562-16.92562z" fill="#46A069" p-id="28511"></path><path d="M368.132231 617.785124c4.654545 30.889256 9.732231 46.545455 15.233058 46.545455 5.077686 0 10.155372-11.847934 14.386777-35.543802l-29.619835-11.001653zM486.18843 643.173554c4.654545 45.276033 10.578512 67.702479 16.92562 67.702479s13.963636-22.003306 22.003305-65.586777l-38.928925-2.115702zM617.785124 631.74876c1.692562 22.003306 4.654545 32.581818 8.46281 32.581819 3.808264 0 8.039669-12.694215 12.694215-38.082645l-21.157025 5.500826z" fill="#46A069" p-id="28512"></path><path d="M505.652893 490.842975c52.469421 0 101.553719-14.809917 127.788429-42.314049 13.963636-14.809917 18.195041-40.198347 18.195042-59.23967 0-53.738843-65.163636-97.322314-145.983471-97.322314S359.669421 335.550413 359.669421 389.712397c0 22.003306 7.616529 49.084298 25.811571 65.586777 22.426446 20.733884 67.702479 35.543802 120.171901 35.543801z" fill="#F9FBFA" p-id="28513"></path><path d="M505.652893 496.343802c-52.046281 0-99.438017-14.386777-123.980166-37.236364-20.310744-18.618182-27.504132-48.238017-27.504132-69.818182 0-56.700826 68.12562-103.246281 151.484298-103.246281s151.484298 46.122314 151.484297 103.246281c0 12.694215-2.115702 44.006612-19.887603 63.047934-25.81157 27.504132-75.319008 44.006612-131.596694 44.006612z m0-198.876033C428.218182 297.467769 365.170248 338.512397 365.170248 389.289256c0 19.041322 6.347107 45.276033 23.695868 61.355372 22.426446 20.733884 68.12562 34.27438 116.363636 34.27438 53.315702 0 99.438017-15.233058 123.557025-40.621487 15.233058-15.656198 16.502479-44.006612 16.502479-55.008265 0.846281-50.353719-62.201653-91.821488-139.636363-91.821487z" fill="#46A069" p-id="28514"></path><path d="M393.520661 382.942149c-0.42314 0-0.846281 0-0.846281-0.423141-0.846281-0.42314-1.269421-1.692562-0.846281-2.961983 1.269421-2.538843 2.538843-5.077686 4.231405-7.616529 0.42314-0.846281 1.692562-1.269421 2.961984-0.846281 0.846281 0.42314 1.269421 2.115702 0.846281 2.961983-1.269421 2.115702-2.961983 4.654545-4.231405 7.193389-0.42314 1.269421-1.269421 1.692562-2.115703 1.692562z m221.302479-5.500827c-0.846281 0-1.269421-0.42314-1.692561-1.269421-1.269421-2.538843-2.961983-4.654545-4.231405-7.193389-0.846281-0.846281-0.42314-2.115702 0.42314-2.961983 0.846281-0.846281 2.115702-0.42314 2.961984 0.42314 1.692562 2.538843 2.961983 4.654545 4.654545 7.193389 0.42314 0.846281 0.42314 2.115702-0.846281 2.961983-0.42314 0.846281-0.846281 0.846281-1.269422 0.846281z m-212.416528-8.88595c-0.42314 0-0.846281 0-1.269422-0.423141-0.846281-0.846281-1.269421-2.115702-0.42314-2.961983 1.692562-2.538843 3.385124-4.654545 5.500826-6.770248 0.846281-0.846281 2.115702-0.846281 2.961984-0.42314 0.846281 0.846281 0.846281 2.115702 0.42314 2.961983l-5.077686 6.347107c-0.846281 0.846281-1.692562 1.269421-2.115702 1.269422z m203.107438-5.077686c-0.42314 0-1.269421-0.42314-1.692562-0.846281-1.692562-2.115702-3.385124-4.231405-5.500827-6.347107-0.846281-0.846281-0.846281-2.115702 0-2.961984 0.846281-0.846281 2.115702-0.846281 2.961984 0 2.115702 2.115702 3.808264 4.231405 5.500826 6.347107 0.846281 0.846281 0.42314 2.115702-0.42314 2.961984 0 0.42314-0.42314 0.846281-0.846281 0.846281z m-192.105786-7.616529c-0.42314 0-1.269421 0-1.692562-0.42314-0.846281-0.846281-0.846281-2.115702 0-2.961984 2.115702-2.115702 4.231405-3.808264 6.347108-5.923967 0.846281-0.846281 2.115702-0.42314 2.961983 0.423141 0.846281 0.846281 0.42314 2.115702-0.42314 2.961983-2.115702 1.692562-4.231405 3.808264-6.347108 5.500827 0 0-0.42314 0.42314-0.846281 0.42314z m180.257852-4.654545c-0.42314 0-0.846281 0-1.269422-0.423141l-6.347107-5.077686c-0.846281-0.846281-1.269421-2.115702-0.423141-2.961983 0.846281-0.846281 2.115702-1.269421 2.961984-0.423141 2.115702 1.692562 4.654545 3.385124 6.770248 5.500827 0.846281 0.846281 0.846281 2.115702 0 2.961983-0.42314 0-1.269421 0.42314-1.692562 0.423141z m-167.140496-6.347108c-0.846281 0-1.269421-0.42314-1.692562-0.846281-0.846281-0.846281-0.42314-2.115702 0.42314-2.961983 2.538843-1.692562 4.654545-2.961983 7.193389-4.654546 0.846281-0.42314 2.115702-0.42314 2.961983 0.846281 0.42314 0.846281 0.42314 2.115702-0.846281 2.961984-2.538843 1.269421-4.654545 2.961983-7.193388 4.231405 0 0.42314-0.42314 0.42314-0.846281 0.42314z m153.6-3.808264c-0.42314 0-0.846281 0-1.269422-0.423141-2.538843-1.269421-4.654545-2.538843-7.193388-3.808264-0.846281-0.42314-1.269421-1.692562-0.846281-2.961984 0.42314-0.846281 1.692562-1.269421 2.961983-0.846281 2.538843 1.269421 5.077686 2.538843 7.616529 4.231405 0.846281 0.42314 1.269421 1.692562 0.846281 2.961984-0.846281 0.846281-1.692562 0.846281-2.115702 0.846281z m-139.213223-4.654546c-0.846281 0-1.692562-0.42314-2.115703-1.269421-0.42314-0.846281 0-2.115702 0.846281-2.961984 2.538843-1.269421 5.077686-2.538843 8.03967-3.385124 1.269421-0.42314 2.115702 0 2.538843 1.269422 0.42314 1.269421 0 2.115702-1.269422 2.538843-2.538843 0.846281-5.077686 2.115702-7.616529 3.385124 0.42314 0.42314 0 0.42314-0.42314 0.42314z m123.980165-2.538843h-0.846281c-2.538843-0.846281-5.077686-2.115702-7.616529-2.961983-1.269421-0.42314-1.692562-1.692562-1.269421-2.538843 0.42314-1.269421 1.692562-1.692562 2.538843-1.269422 2.961983 0.846281 5.500826 1.692562 8.039669 2.961984 1.269421 0.42314 1.692562 1.692562 1.269421 2.961983-0.42314 0-1.269421 0.846281-2.115702 0.846281z m-108.323967-3.385124c-0.846281 0-1.692562-0.42314-2.115702-1.692562-0.42314-1.269421 0.42314-2.115702 1.269421-2.538843 2.538843-0.846281 5.500826-1.692562 8.46281-2.115702 1.269421-0.42314 2.115702 0.42314 2.538843 1.692562 0.42314 1.269421-0.42314 2.115702-1.692562 2.538843-2.538843 0.846281-5.500826 1.269421-8.039669 2.115702h-0.423141z m92.244628-2.115702h-0.42314c-2.538843-0.846281-5.500826-1.269421-8.03967-1.692562-1.269421-0.42314-2.115702-1.269421-1.692562-2.538843 0.42314-1.269421 1.269421-1.692562 2.538843-1.692562 2.961983 0.42314 5.500826 1.269421 8.46281 1.692562 1.269421 0.42314 1.692562 1.269421 1.692562 2.538843-0.846281 1.269421-1.692562 1.692562-2.538843 1.692562z m-75.742149-2.115703c-0.846281 0-1.692562-0.846281-2.115702-1.692562 0-1.269421 0.42314-2.115702 1.692562-2.538843 2.961983-0.42314 5.500826-0.846281 8.46281-1.269421 1.269421 0 2.115702 0.846281 2.538843 1.692562 0 1.269421-0.846281 2.115702-1.692562 2.538843-2.961983 0.42314-5.500826 0.846281-8.885951 1.269421 0.42314 0 0.42314 0 0 0z m59.23967-0.846281s-0.42314 0 0 0c-2.961983-0.42314-5.923967-0.846281-8.46281-0.846281-1.269421 0-2.115702-1.269421-2.115703-2.115702 0-1.269421 1.269421-2.115702 2.115703-2.115703 2.961983 0.42314 5.923967 0.42314 8.46281 0.846281 1.269421 0 2.115702 1.269421 1.692562 2.538843 0 0.846281-0.846281 1.692562-1.692562 1.692562z m-42.31405-1.269421c-1.269421 0-2.115702-0.846281-2.115702-2.115703s0.846281-2.115702 2.115702-2.115702c2.961983-0.42314 5.500826-0.42314 8.46281-0.423141 1.269421 0 2.115702 0.846281 2.115703 2.115703s-0.846281 2.115702-2.115703 2.115702c-2.961983 0.42314-5.500826 0.42314-8.46281 0.423141z m25.38843-0.423141h-8.46281c-1.269421 0-2.115702-0.846281-2.115702-2.115702s0.846281-2.115702 2.115702-2.115703h8.46281c1.269421 0 2.115702 0.846281 2.115702 2.115703s-0.846281 2.115702-2.115702 2.115702z" fill="#46A069" p-id="28515"></path><path d="M505.652893 247.53719m-23.272728 0a23.272727 23.272727 0 1 0 46.545455 0 23.272727 23.272727 0 1 0-46.545455 0Z" fill="#46A069" opacity=".373" p-id="28516"></path><path d="M505.652893 272.92562c-13.963636 0-25.38843-11.424793-25.38843-25.38843s11.424793-25.38843 25.38843-25.38843 25.38843 11.424793 25.388429 25.38843-11.424793 25.38843-25.388429 25.38843z m0-46.545455c-11.847934 0-21.157025 9.309091-21.157025 21.157025s9.309091 21.157025 21.157025 21.157025 21.157025-9.309091 21.157024-21.157025-9.309091-21.157025-21.157024-21.157025z" fill="#46A069" p-id="28517"></path><path d="M503.53719 270.809917h4.231405v21.157025h-4.231405z" fill="#46A069" p-id="28518"></path><path d="M114.332562 514.014149l4.747636-5.957818 34.088199 27.161388-4.747637 5.957818z" fill="#46A069" p-id="28519"></path><path d="M113.977124 537.65924l28.405421-32.492959 5.733554 5.014215-28.405421 32.492959zM242.590678 213.305124l4.916892-7.404959 40.892298 27.157157-4.916893 7.404959z" fill="#46A069" p-id="28520"></path><path d="M247.977256 241.714777l28.418116-37.926083L283.504132 209.116033l-28.413884 37.926083z" fill="#46A069" p-id="28521"></path><path d="M617.785124 133.712397a11.001653 11.001653 0 1 0 22.003306 0 11.001653 11.001653 0 1 0-22.003306 0Z" fill="#46A069" p-id="28522"></path><path d="M696.489256 298.31405a8.46281 8.46281 0 1 0 16.92562 0 8.46281 8.46281 0 1 0-16.92562 0Z" fill="#46A069" p-id="28523"></path><path d="M748.958678 64.317355c-16.92562 0-30.889256-13.963636-30.889257-30.466115 0-16.92562 13.963636-30.466116 30.889257-30.466116s30.889256 13.963636 30.889256 30.466116c-0.42314 16.502479-13.963636 30.466116-30.889256 30.466115z m0-50.353719c-11.001653 0-19.464463 8.88595-19.464463 19.464463 0 10.578512 8.88595 19.464463 19.464463 19.464463 11.001653 0 19.464463-8.88595 19.464462-19.464463 0-10.578512-8.88595-19.464463-19.464462-19.464463zM806.505785 463.338843c-13.963636 0-25.38843-11.424793-25.38843-24.965289s11.424793-24.965289 25.38843-24.96529 25.38843 11.424793 25.38843 24.96529-11.424793 24.965289-25.38843 24.965289z m0-38.928926c-7.616529 0-13.963636 6.347107-13.963636 13.963637s6.347107 13.963636 13.963636 13.963636 13.963636-6.347107 13.963636-13.963636-5.923967-13.963636-13.963636-13.963637zM402.829752 184.066116c-12.271074 0-22.426446-10.155372-22.426446-22.426447s10.155372-22.426446 22.426446-22.426446 22.426446 10.155372 22.426446 22.426446c-0.42314 12.271074-10.155372 22.426446-22.426446 22.426447z m0-33.428099c-6.347107 0-11.001653 5.077686-11.001653 11.001652 0 6.347107 5.077686 11.001653 11.001653 11.001653s11.001653-5.077686 11.001653-11.001653c0-6.347107-5.077686-11.001653-11.001653-11.001652z" fill="#46A069" p-id="28524"></path><path d="M228.495868 391.828099a11.001653 11.001653 0 1 0 22.003306 0 11.001653 11.001653 0 1 0-22.003306 0Z" fill="#46A069" p-id="28525"></path><path d="M786.787438 235.299967l6.431736-8.919802 48.394578 34.896397-6.431735 8.924033z" fill="#46A069" p-id="28526"></path><path d="M790.248727 269.637818l37.900694-48.788099 8.687075 6.749091-37.900694 48.788099z" fill="#46A069" p-id="28527"></path></svg>